<svg xmlns="http://www.w3.org/2000/svg" xml:space="preserve" width="2048" height="2048" style="shape-rendering:geometricPrecision;text-rendering:geometricPrecision;image-rendering:optimizeQuality;fill-rule:evenodd;clip-rule:evenodd"><defs><clipPath id="id0"><path d="M1024-.001c565.539 0 1024 458.462 1024 1024 0 565.539-458.462 1024-1024 1024-565.539 0-1024-458.462-1024-1024 0-565.54 458.462-1024 1024-1024z"/></clipPath><style>.fil1{fill:#1e88e5}</style></defs><g id="Layer_x0020_1"><path d="M1024-.001c565.539 0 1024 458.462 1024 1024 0 565.539-458.462 1024-1024 1024-565.539 0-1024-458.462-1024-1024 0-565.54 458.462-1024 1024-1024z" style="fill:#64b5f6"/><g style="clip-path:url(#id0)"><g id="_466488104"><path id="_3968087201" class="fil1" d="M1501.84 706.015 2637.72 1841.9l4.14 4.89 4.04 4.94 3.94 4.98 3.85 5.03 3.75 5.06L1521.56 730.92l-3.75-5.065-3.85-5.024-3.95-4.981-4.03-4.939z"/><path id="_396799528" class="fil1" d="M1521.56 730.92 2657.44 1866.8l3.67 5.14 3.58 5.18 3.47 5.22 3.37 5.26 3.26 5.29 3.17 5.33 3.05 5.37 2.95 5.41 2.84 5.44 2.73 5.48 2.62 5.5 2.51 5.55 2.39 5.57 2.29 5.61 2.17 5.64 2.05 5.67 1.94 5.7 1.82 5.72 1.7 5.76 1.58 5.78 1.46 5.82 1.34 5.83 1.22 5.87 1.09 5.89.97 5.91.84 5.94.72 5.96.59 5.98.46 6.01.33 6.03.2 6.04.06 6.07L1584 911.886l-.06-6.066-.2-6.047-.33-6.026-.46-6.006-.59-5.984-.72-5.961-.84-5.937-.97-5.914-1.09-5.889-1.22-5.864-1.34-5.838-1.46-5.812-1.58-5.785-1.7-5.757-1.82-5.727-1.94-5.699-2.05-5.669-2.17-5.639-2.29-5.607-2.39-5.575-2.51-5.542-2.62-5.509-2.73-5.476-2.84-5.44-2.95-5.406-3.06-5.369-3.16-5.333-3.26-5.295-3.37-5.257-3.48-5.219-3.57-5.179z"/><path id="_396797296" class="fil1" d="M1584 911.886 2719.88 2047.77v1.93l-.01.97-.02.97-.01.97-.02.97-.02.97-.03.97L1583.89 919.635l.03-.969.02-.971.02-.969.01-.969.02-.969v-.967l.01-.968z"/><path id="_396821680" class="fil1" d="M1583.89 919.635 2719.77 2055.52v.14L1583.89 919.777z"/><path id="_396807040" class="fil1" d="M1583.89 919.777 2719.77 2055.66l-.16 4.27-.22 4.27-.29 4.29-.35 4.29-.42 4.31-.49 4.31-.56 4.31-.62 4.33-.7 4.33-.76 4.34-.83 4.34-.91 4.35-.97 4.36-1.04 4.36-1.12 4.37-1.18 4.38-1.26 4.37-1.33 4.39-1.4 4.39-1.47 4.39-1.55 4.4-1.62 4.4-1.7 4.41-1.76 4.41-1.85 4.41-1.91 4.42-2 4.41-2.06 4.43-2.15 4.42-2.22 4.43-2.3 4.42-2.37 4.43-1135.88-1135.88 2.37-4.43 2.3-4.43 2.22-4.42 2.14-4.43 2.07-4.42 1.99-4.42 1.92-4.41 1.85-4.41 1.76-4.41 1.7-4.41 1.62-4.4 1.54-4.4 1.48-4.39 1.4-4.392 1.33-4.386 1.26-4.379 1.18-4.374 1.12-4.369 1.04-4.363.97-4.357.9-4.351.84-4.345.76-4.339.7-4.331.62-4.324.56-4.317.49-4.31.42-4.301.35-4.293.29-4.287.22-4.276z"/><path id="_396820816" class="fil1" d="M1544.32 1059.52 2680.2 2195.4l-4.12 7.38-4.29 7.28-4.45 7.18-4.61 7.07-4.76 6.97-4.92 6.88-5.07 6.77-5.21 6.66-5.37 6.57-5.51 6.46-5.64 6.36-5.79 6.25-5.93 6.15-6.06 6.05-6.19 5.94-6.33 5.84-6.45 5.74-6.58 5.63-6.7 5.52-6.82 5.42-6.94 5.31-7.05 5.2-7.17 5.1-7.29 4.99-7.39 4.89-7.49 4.78-7.61 4.67-7.7 4.56-7.81 4.45-7.9 4.35-8 4.23-8.09 4.13L1343.08 1244.3l8.09-4.13 8-4.24 7.9-4.34 7.81-4.46 7.7-4.56 7.6-4.67 7.5-4.77 7.39-4.89 7.29-4.99 7.17-5.1 7.05-5.2 6.94-5.32 6.82-5.41 6.7-5.53 6.58-5.62 6.45-5.74 6.33-5.84 6.19-5.94 6.06-6.05 5.93-6.15 5.78-6.25 5.65-6.36 5.51-6.46 5.36-6.57 5.22-6.67 5.07-6.77 4.92-6.87 4.76-6.97 4.61-7.08 4.45-7.17 4.28-7.28z"/><path id="_396813520" class="fil1" d="m1343.08 1244.3 1135.88 1135.88-8.41 4.13-8.5 4.01-8.6 3.9-8.69 3.78-8.77 3.66-8.86 3.54-8.93 3.43-9.02 3.31-9.09 3.19-9.17 3.07-9.23 2.96-9.31 2.83-9.37 2.71-9.43 2.6-9.5 2.47-9.55 2.36-9.61 2.23-9.66 2.11-9.71 2-9.76 1.86-9.81 1.75-9.85 1.63-9.88 1.5-9.93 1.38-9.96 1.26-9.99 1.13-10.02 1.01-10.05.88-10.08.76-10.1.64-10.11.51-10.14.39-1135.88-1135.89 10.14-.38 10.11-.51 10.1-.64 10.07-.76 10.05-.89 10.03-1 9.99-1.14 9.96-1.25 9.93-1.38 9.88-1.5 9.85-1.63 9.81-1.75 9.76-1.87 9.71-1.99 9.66-2.11 9.61-2.23 9.55-2.36 9.5-2.47 9.43-2.6 9.37-2.71 9.3-2.84 9.24-2.95 9.17-3.07 9.09-3.19 9.01-3.31 8.94-3.43 8.86-3.54 8.77-3.67 8.69-3.78 8.59-3.89 8.51-4.01z"/><path id="_396820240" class="fil1" d="M706.744 1246.39 1842.63 2382.27l-11.17-5.95-10.89-6.04-10.6-6.14-10.33-6.23-10.04-6.31-9.76-6.4-9.49-6.49-9.22-6.57-8.94-6.64-8.66-6.72-8.4-6.8-8.13-6.86-7.86-6.94L583.256 1162.3l7.861 6.93 8.13 6.87 8.398 6.8 8.668 6.72 8.941 6.64 9.213 6.57 9.488 6.48 9.766 6.4 10.043 6.32 10.321 6.23 10.604 6.13 10.885 6.05z"/><path id="_396801736" class="fil1" d="M880.192 1430.08 2016.07 2565.96l-5.7 3.54-5.73 3.51-5.75 3.49-5.78 3.45-5.8 3.42-5.83 3.39-5.86 3.36-5.88 3.31-5.9 3.29-5.93 3.24-5.96 3.2-5.97 3.16-6.01 3.12-6.03 3.07-6.05 3.03-6.08 2.98-6.11 2.94-6.13 2.88-6.15 2.83-6.18 2.78-6.2 2.73-6.23 2.67-6.25 2.61-6.28 2.56-6.3 2.5-6.33 2.44-6.35 2.38-6.38 2.31-6.4 2.25-6.42 2.18-6.45 2.12-6.48 2.04L685.289 1522.86l6.475-2.05 6.45-2.11 6.425-2.18 6.401-2.25 6.376-2.32 6.352-2.37 6.327-2.44 6.303-2.5 6.277-2.56 6.253-2.61 6.228-2.67 6.204-2.73 6.179-2.78 6.153-2.83 6.129-2.89 6.105-2.93 6.079-2.98 6.055-3.03 6.029-3.07 6.005-3.12 5.979-3.16 5.955-3.2 5.929-3.25 5.904-3.28 5.88-3.32 5.855-3.35 5.828-3.39 5.804-3.42 5.779-3.45 5.754-3.49 5.728-3.51z"/><path id="_396797272" class="fil1" d="M685.289 1522.86 1821.17 2658.74l-47.93 14.87L637.363 1537.73z"/><path id="_396811792" class="fil1" d="m1039.99 1317.28 1135.88 1135.89-4.62 3.5-4.64 3.51-4.67 3.53-4.69 3.53-4.72 3.55-4.73 3.55-4.77 3.56-4.78 3.57-4.81 3.57-4.84 3.57-4.86 3.58-4.88 3.58-4.91 3.58-4.93 3.58-4.95 3.57-4.98 3.58-5.01 3.57-5.02 3.56-5.06 3.56-5.07 3.55-5.11 3.55-5.12 3.53-5.15 3.52-5.18 3.51-5.2 3.5-5.22 3.48-5.25 3.47-5.28 3.45-5.3 3.44-5.32 3.41-5.35 3.4-5.38 3.38L880.192 1430.08l5.376-3.38 5.349-3.4 5.324-3.41 5.3-3.44 5.275-3.45 5.25-3.47 5.225-3.48 5.2-3.5 5.176-3.51 5.151-3.52 5.126-3.54 5.102-3.54 5.076-3.55 5.053-3.56 5.028-3.56 5.004-3.57 4.98-3.58 4.955-3.57 4.931-3.58 4.906-3.58 4.883-3.58 4.859-3.58 4.834-3.57 4.815-3.58 4.78-3.56 4.76-3.56 4.74-3.55 4.72-3.55 4.69-3.54 4.67-3.52 4.64-3.52z"/><path id="_466495928" class="fil1" d="M1023.62 510.276c123.307 0 240.099 30.835 334.762 82.378 67.431 36.716 123.699 84.023 163.175 138.266 39.738 54.603 62.446 116.152 62.446 180.966 0 2.578-.038 5.162-.11 7.75l-.006.141c-1.295 45.483-13.834 92.485-39.565 139.745-43.133 79.236-114.45 141.332-201.238 184.775-89.216 44.66-194.914 69.544-303.09 72.987-49.16 37.276-102.334 76.893-159.8 112.792-60.7 37.92-125.711 71.322-194.903 92.785l-47.926 14.865 15.885-39.123c17.41-42.884 32.308-90.242 41.913-137.8 7.824-38.745 12.182-77.651 11.582-114.415-120.66-62.94-192.613-142.519-224.042-225.99-12.508-33.217-18.567-67.023-18.699-100.62l-.002-.759c-.038-29.596 4.519-59.028 13.32-87.75 18.793-61.324 56.937-119.343 110.952-168.736 99.002-90.53 251.313-152.257 435.345-152.257z"/></g></g><path d="M1024-.001c565.539 0 1024 458.462 1024 1024 0 565.539-458.462 1024-1024 1024-565.539 0-1024-458.462-1024-1024 0-565.54 458.462-1024 1024-1024z" style="fill:none"/><path d="m464.002 919.777-.002-.758c-.038-29.596 4.519-59.028 13.32-87.75 18.793-61.324 56.936-119.343 110.952-168.736 99.001-90.53 251.313-152.257 435.345-152.257 123.307 0 240.1 30.835 334.762 82.378 67.432 36.716 123.7 84.023 163.175 138.266C1561.292 785.522 1584 847.072 1584 911.886c0 2.577-.038 5.161-.11 7.75l-.006.141H464.004z" style="fill:#e3f2fd;fill-rule:nonzero"/><path d="M880.192 1430.08c-60.7 37.92-125.711 71.322-194.903 92.785l-47.926 14.865 15.885-39.122c17.41-42.885 32.308-90.243 41.914-137.8 7.824-38.745 12.182-77.652 11.582-114.415-120.66-62.94-192.613-142.52-224.042-225.99-12.508-33.218-18.567-67.023-18.7-100.621h1119.88c-1.295 45.483-13.834 92.485-39.565 139.745-43.133 79.235-114.45 141.332-201.238 184.775-89.216 44.658-194.914 69.543-303.09 72.986-49.159 37.277-102.334 76.893-159.8 112.792z" style="fill:#bbdefb;fill-rule:nonzero"/></g></svg>